<?xml version="1.0" encoding="UTF-8" standalone="no"?>
<!-- Generator: Adobe Illustrator 19.0.0, SVG Export Plug-In . SVG Version: 6.00 Build 0)  -->

<svg
   version="1.1"
   id="Layer_1"
   x="0px"
   y="0px"
   viewBox="0 0 482 482"
   style="enable-background:new 0 0 482 482;"
   xml:space="preserve"
   sodipodi:docname="lmb.svg"
   inkscape:version="1.2 (dc2aedaf03, 2022-05-15)"
   xmlns:inkscape="http://www.inkscape.org/namespaces/inkscape"
   xmlns:sodipodi="http://sodipodi.sourceforge.net/DTD/sodipodi-0.dtd"
   xmlns="http://www.w3.org/2000/svg"
   xmlns:svg="http://www.w3.org/2000/svg"><defs
   id="defs82" /><sodipodi:namedview
   id="namedview80"
   pagecolor="#505050"
   bordercolor="#eeeeee"
   borderopacity="1"
   inkscape:showpageshadow="0"
   inkscape:pageopacity="0"
   inkscape:pagecheckerboard="0"
   inkscape:deskcolor="#505050"
   showgrid="false"
   inkscape:zoom="1.8091286"
   inkscape:cx="134.31881"
   inkscape:cy="241"
   inkscape:window-width="1920"
   inkscape:window-height="1027"
   inkscape:window-x="-8"
   inkscape:window-y="1192"
   inkscape:window-maximized="1"
   inkscape:current-layer="Layer_1" />
<g
   id="g47">
	<g
   id="g45">
		<path
   d="M361.9,45.5C331.9,16.1,292,0,249.4,0h-16.8C190,0,150.1,16.2,120.1,45.5c-30,29.4-46.6,68.7-46.6,110.5v170.8    c0,41.8,16.6,80.9,46.6,110.1C150,466,190,482,232.6,482h16.8c42.6,0,82.5-16,112.5-45.1c30.1-29.2,46.6-68.3,46.6-110.1V156    C408.5,114.2,392,75,361.9,45.5z M241,97.5c12.7,0,23,10.3,23,23s-10.3,23-23,23s-23-10.3-23-23C218,107.9,228.3,97.5,241,97.5z     M93.5,156C93.5,81.5,155,20.9,231,20v58.7c-18.9,4.5-33,21.5-33,41.8s14.1,37.3,33,41.8v47.2H93.5V156z M388.5,326.8    c0,74.5-62.4,135.2-139.1,135.2h-16.8c-76.7,0-139.1-60.7-139.1-135.2v-97.3h295V326.8z M388.5,209.5H251v-47.2    c18.9-4.5,33-21.5,33-41.8s-14.1-37.3-33-41.8V20c76,0.8,137.5,61.5,137.5,136V209.5z"
   id="path43" />
	</g>
</g>
<g
   id="g49">
</g>
<g
   id="g51">
</g>
<g
   id="g53">
</g>
<g
   id="g55">
</g>
<g
   id="g57">
</g>
<g
   id="g59">
</g>
<g
   id="g61">
</g>
<g
   id="g63">
</g>
<g
   id="g65">
</g>
<g
   id="g67">
</g>
<g
   id="g69">
</g>
<g
   id="g71">
</g>
<g
   id="g73">
</g>
<g
   id="g75">
</g>
<g
   id="g77">
</g>
<path
   style="fill:#016574;stroke-width:0.552752;fill-opacity:1"
   d="m 93.96789,177.73817 c 0,-34.01721 0.244367,-38.00507 3.117909,-50.88152 4.409381,-19.75859 13.691621,-38.817288 26.920951,-55.275228 1.83281,-2.280103 6.33375,-7.130505 10.00209,-10.77867 20.13006,-20.019353 46.18865,-33.466279 74.37877,-38.381423 5.56015,-0.969451 17.24163,-2.223546 20.8664,-2.240167 l 1.2437,-0.0057 v 29.194927 29.194929 l -3.17833,0.980555 c -13.05616,4.028011 -24.27907,15.858651 -28.1326,29.655997 -1.43131,5.12474 -1.41138,17.6614 0.036,22.62955 4.10313,14.08431 15.01229,25.58601 28.09662,29.62271 l 3.17833,0.98056 v 23.39102 l -1e-5,23.39103 H 162.2328 93.96789 Z"
   id="path326" /><path
   style="fill:#016574;fill-opacity:1;stroke-width:0.552752"
   d="m 94.260389,180.05906 c 0.0089,-16.03673 0.24685,-32.31053 0.528848,-36.16401 1.76245,-24.0837 12.609343,-50.942925 28.756853,-71.208123 8.47507,-10.636255 23.78588,-24.000321 36.25267,-31.643208 19.47469,-11.939147 42.57333,-18.994309 66.97271,-20.455891 l 3.45953,-0.207235 -0.14302,29.002442 -0.14303,29.002442 -2.88297,0.97988 c -11.04851,3.755222 -20.28327,12.101157 -25.33198,22.893813 -3.15922,6.7535 -3.63967,9.16779 -3.62347,18.20823 0.0162,9.04792 0.69423,12.29962 3.95249,18.95588 5.12857,10.47707 14.20737,18.5422 25.00296,22.21132 l 2.88297,0.97985 0.14419,23.30115 0.14419,23.30114 H 162.2388 94.244266 Z"
   id="path2669" /><path
   style="fill:#016574;fill-opacity:1;stroke-width:0.552752"
   d="m 94.256808,179.78268 c 0.0069,-16.18873 0.249589,-32.48216 0.539312,-36.20763 1.459291,-18.76459 8.84529,-40.71665 19.30203,-57.367918 6.00463,-9.561747 9.51577,-14.073872 16.90414,-21.72332 14.86224,-15.387406 30.16862,-25.913138 48.64221,-33.449754 14.46045,-5.899391 27.76719,-8.849829 47.40337,-10.510516 l 3.18319,-0.269212 -0.14305,29.041511 -0.14306,29.041513 -3.34304,1.210411 c -13.23851,4.793253 -24.25207,16.793842 -27.64739,30.125125 -0.70915,2.78441 -0.8546,5.45127 -0.67826,12.43693 0.21441,8.49459 0.30579,9.09797 2.04229,13.48518 4.75219,12.00627 15.10091,22.08264 26.74343,26.0396 l 2.88297,0.97985 0.14419,23.30115 0.14419,23.30114 H 162.2388 94.244266 Z"
   id="path3361" /></svg>
