<?xml version="1.0" encoding="UTF-8" standalone="no"?>
<!-- Generator: Adobe Illustrator 19.0.0, SVG Export Plug-In . SVG Version: 6.00 Build 0)  -->

<svg
   version="1.1"
   id="Layer_1"
   x="0px"
   y="0px"
   viewBox="0 0 482 482"
   style="enable-background:new 0 0 482 482;"
   xml:space="preserve"
   sodipodi:docname="mmb.svg"
   inkscape:version="1.2 (dc2aedaf03, 2022-05-15)"
   xmlns:inkscape="http://www.inkscape.org/namespaces/inkscape"
   xmlns:sodipodi="http://sodipodi.sourceforge.net/DTD/sodipodi-0.dtd"
   xmlns="http://www.w3.org/2000/svg"
   xmlns:svg="http://www.w3.org/2000/svg"><defs
   id="defs82" /><sodipodi:namedview
   id="namedview80"
   pagecolor="#505050"
   bordercolor="#eeeeee"
   borderopacity="1"
   inkscape:showpageshadow="0"
   inkscape:pageopacity="0"
   inkscape:pagecheckerboard="0"
   inkscape:deskcolor="#505050"
   showgrid="false"
   inkscape:zoom="1.8091286"
   inkscape:cx="134.31881"
   inkscape:cy="241"
   inkscape:window-width="1920"
   inkscape:window-height="1027"
   inkscape:window-x="-8"
   inkscape:window-y="1192"
   inkscape:window-maximized="1"
   inkscape:current-layer="Layer_1" />
<g
   id="g47">
	<g
   id="g45">
		<path
   d="M361.9,45.5C331.9,16.1,292,0,249.4,0h-16.8C190,0,150.1,16.2,120.1,45.5c-30,29.4-46.6,68.7-46.6,110.5v170.8    c0,41.8,16.6,80.9,46.6,110.1C150,466,190,482,232.6,482h16.8c42.6,0,82.5-16,112.5-45.1c30.1-29.2,46.6-68.3,46.6-110.1V156    C408.5,114.2,392,75,361.9,45.5z M241,97.5c12.7,0,23,10.3,23,23s-10.3,23-23,23s-23-10.3-23-23C218,107.9,228.3,97.5,241,97.5z     M93.5,156C93.5,81.5,155,20.9,231,20v58.7c-18.9,4.5-33,21.5-33,41.8s14.1,37.3,33,41.8v47.2H93.5V156z M388.5,326.8    c0,74.5-62.4,135.2-139.1,135.2h-16.8c-76.7,0-139.1-60.7-139.1-135.2v-97.3h295V326.8z M388.5,209.5H251v-47.2    c18.9-4.5,33-21.5,33-41.8s-14.1-37.3-33-41.8V20c76,0.8,137.5,61.5,137.5,136V209.5z"
   id="path43" />
	</g>
</g>
<g
   id="g49">
</g>
<g
   id="g51">
</g>
<g
   id="g53">
</g>
<g
   id="g55">
</g>
<g
   id="g57">
</g>
<g
   id="g59">
</g>
<g
   id="g61">
</g>
<g
   id="g63">
</g>
<g
   id="g65">
</g>
<g
   id="g67">
</g>
<g
   id="g69">
</g>
<g
   id="g71">
</g>
<g
   id="g73">
</g>
<g
   id="g75">
</g>
<g
   id="g77">
</g>
<path
   style="fill:#016574;fill-opacity:1;stroke-width:0.552752"
   d="m 237.18286,142.87079 c -9.15294,-1.58664 -17.06246,-9.70818 -18.56974,-19.06753 -2.33684,-14.51044 11.1797,-28.026976 25.69014,-25.690138 12.1942,1.963818 20.99635,13.813158 19.08362,25.690138 -2.00255,12.43468 -14.02038,21.17954 -26.20402,19.06753 z"
   id="path4863" /></svg>
