<?xml version="1.0" encoding="UTF-8" standalone="no"?>
<!-- Generator: Adobe Illustrator 19.0.0, SVG Export Plug-In . SVG Version: 6.00 Build 0)  -->

<svg
   version="1.1"
   id="Layer_1"
   x="0px"
   y="0px"
   viewBox="0 0 482 482"
   style="enable-background:new 0 0 482 482;"
   xml:space="preserve"
   sodipodi:docname="rmb.svg"
   inkscape:version="1.2 (dc2aedaf03, 2022-05-15)"
   xmlns:inkscape="http://www.inkscape.org/namespaces/inkscape"
   xmlns:sodipodi="http://sodipodi.sourceforge.net/DTD/sodipodi-0.dtd"
   xmlns="http://www.w3.org/2000/svg"
   xmlns:svg="http://www.w3.org/2000/svg"><defs
   id="defs82" /><sodipodi:namedview
   id="namedview80"
   pagecolor="#505050"
   bordercolor="#eeeeee"
   borderopacity="1"
   inkscape:showpageshadow="0"
   inkscape:pageopacity="0"
   inkscape:pagecheckerboard="0"
   inkscape:deskcolor="#505050"
   showgrid="false"
   inkscape:zoom="1.8091286"
   inkscape:cx="134.31881"
   inkscape:cy="241"
   inkscape:window-width="1920"
   inkscape:window-height="1027"
   inkscape:window-x="-8"
   inkscape:window-y="1192"
   inkscape:window-maximized="1"
   inkscape:current-layer="Layer_1" />
<g
   id="g47">
	<g
   id="g45">
		<path
   d="M361.9,45.5C331.9,16.1,292,0,249.4,0h-16.8C190,0,150.1,16.2,120.1,45.5c-30,29.4-46.6,68.7-46.6,110.5v170.8    c0,41.8,16.6,80.9,46.6,110.1C150,466,190,482,232.6,482h16.8c42.6,0,82.5-16,112.5-45.1c30.1-29.2,46.6-68.3,46.6-110.1V156    C408.5,114.2,392,75,361.9,45.5z M241,97.5c12.7,0,23,10.3,23,23s-10.3,23-23,23s-23-10.3-23-23C218,107.9,228.3,97.5,241,97.5z     M93.5,156C93.5,81.5,155,20.9,231,20v58.7c-18.9,4.5-33,21.5-33,41.8s14.1,37.3,33,41.8v47.2H93.5V156z M388.5,326.8    c0,74.5-62.4,135.2-139.1,135.2h-16.8c-76.7,0-139.1-60.7-139.1-135.2v-97.3h295V326.8z M388.5,209.5H251v-47.2    c18.9-4.5,33-21.5,33-41.8s-14.1-37.3-33-41.8V20c76,0.8,137.5,61.5,137.5,136V209.5z"
   id="path43" />
	</g>
</g>
<g
   id="g49">
</g>
<g
   id="g51">
</g>
<g
   id="g53">
</g>
<g
   id="g55">
</g>
<g
   id="g57">
</g>
<g
   id="g59">
</g>
<g
   id="g61">
</g>
<g
   id="g63">
</g>
<g
   id="g65">
</g>
<g
   id="g67">
</g>
<g
   id="g69">
</g>
<g
   id="g71">
</g>
<g
   id="g73">
</g>
<g
   id="g75">
</g>
<g
   id="g77">
</g>
<path
   style="fill:#016574;fill-opacity:1;stroke-width:0.552752"
   d="m 251.22592,185.78629 v -23.43046 l 1.93462,-0.36294 c 1.06404,-0.19961 4.47491,-1.63465 7.57971,-3.18896 9.85611,-4.93414 17.63646,-13.92612 21.17791,-24.47592 7.16677,-21.34944 -3.13928,-44.478324 -23.85198,-53.528714 -1.86211,-0.813651 -4.16294,-1.63482 -5.11296,-1.824823 l -1.7273,-0.345459 V 49.336503 20.043993 l 5.38933,0.374041 c 28.32879,1.966132 52.78143,10.491809 74.34196,25.920128 13.24085,9.47491 25.88977,22.432448 34.36514,35.203619 11.45153,17.25581 18.24578,34.761859 21.66313,55.817159 0.78908,4.86172 0.98024,11.16536 1.17757,38.83085 l 0.23557,33.02695 h -68.58635 -68.58635 z"
   id="path4113" /></svg>
